<?xml version="1.0" encoding="UTF-8" standalone="no"?>
<!-- Created with Inkscape (http://www.inkscape.org/) -->

<svg
   xmlns:dc="http://purl.org/dc/elements/1.1/"
   xmlns:cc="http://creativecommons.org/ns#"
   xmlns:rdf="http://www.w3.org/1999/02/22-rdf-syntax-ns#"
   xmlns:svg="http://www.w3.org/2000/svg"
   xmlns="http://www.w3.org/2000/svg"
   xmlns:sodipodi="http://sodipodi.sourceforge.net/DTD/sodipodi-0.dtd"
   xmlns:inkscape="http://www.inkscape.org/namespaces/inkscape"
   width="393.94742mm"
   height="395.2475mm"
   viewBox="0 0 393.94742 395.2475"
   version="1.1"
   id="svg4537"
   inkscape:version="0.92.1 r15371"
   sodipodi:docname="medalceremony.svg">
  <defs
     id="defs4531" />
  <sodipodi:namedview
     id="base"
     pagecolor="#ffffff"
     bordercolor="#666666"
     borderopacity="1.0"
     inkscape:pageopacity="0.0"
     inkscape:pageshadow="2"
     inkscape:zoom="0.063446243"
     inkscape:cx="551.25446"
     inkscape:cy="958.73471"
     inkscape:document-units="mm"
     inkscape:current-layer="layer1"
     showgrid="false"
     fit-margin-top="0"
     fit-margin-left="0"
     fit-margin-right="0"
     fit-margin-bottom="0"
     inkscape:window-width="1366"
     inkscape:window-height="706"
     inkscape:window-x="-8"
     inkscape:window-y="-8"
     inkscape:window-maximized="1" />
  <metadata
     id="metadata4534">
    <rdf:RDF>
      <cc:Work
         rdf:about="">
        <dc:format>image/svg+xml</dc:format>
        <dc:type
           rdf:resource="http://purl.org/dc/dcmitype/StillImage" />
        <dc:title></dc:title>
      </cc:Work>
    </rdf:RDF>
  </metadata>
  <g
     inkscape:label="Layer 1"
     inkscape:groupmode="layer"
     id="layer1"
     transform="translate(251.80788,51.54805)">
    <path
       style="fill:#000000;stroke-width:4.23569584"
       d="m -211.72266,-194.81445 c -76.90689,0.21898 -101.82977,1.81677 -139.83398,8.96679 -183.21642,34.46994 -354.83697,136.94696 -457.63086,273.255863 -35.66351,47.291157 -85.40197,140.264257 -103.51562,193.494137 -25.09252,73.73843 -39.01172,152.6102 -39.01172,221.0625 0,48.86631 7.27124,117.3165 15.38086,144.80274 17.07148,57.86056 20.35307,66.97656 24.10546,66.97656 6.64547,0 4.65804,-15.41029 -6.5664,-50.92383 -14.95143,-47.30528 -20.07157,-86.31479 -20.36524,-155.1582 -0.49307,-115.58321 23.83134,-213.25011 79.30664,-318.41602 79.58162,-150.864514 208.42198,-262.206852 377.8125,-326.5039 76.61893,-29.08285 134.95449,-41.7224 217.69141,-47.16602 196.267756,-12.9133 384.73034,45.99788 535.79688,167.484377 131.47913,105.734411 225.9131,271.354093 248.45507,435.748043 6.4763,47.23076 2.8727,171.04431 -6.18554,212.50391 -12.91355,59.10599 -34.98489,123.4191 -55.28125,161.08984 -4.86645,9.03341 -7.56304,18.39214 -5.99219,20.79883 h 0.004 c 7.06847,10.82937 27.71627,-29.75053 49.9707,-98.20703 C 548.85284,572.14452 548.8219,427.47576 502.32036,287.1543 481.09102,223.09344 454.26842,166.85389 432.57427,140.91797 425.07221,131.94897 407.78529,109.90412 394.16021,91.931641 353.85267,38.763182 260.17333,-47.99829 208.33008,-80.175781 181.51678,-96.817926 54.341213,-151.60235 9.5410156,-165.81055 -67.235696,-190.15993 -105.05185,-195.11821 -211.72266,-194.81445 Z m 2.29493,26.60742 c -74.28661,0.0927 -107.02881,3.70134 -172.05469,18.96875 -276.00038,64.802055 -475.827,264.55729 -531.37891,531.18945 -11.19564,53.73513 -13.8515,168.77013 -4.86719,210.8125 6.14839,28.77192 16.358,50.48427 25.25977,53.71875 3.32787,1.20919 6.05078,4.78162 6.05078,7.93946 0,4.39158 7.59237,5.74218 32.29102,5.74218 40.54356,0 47.4706,2.17261 41.36523,12.97461 -2.49581,4.41574 -8.97155,9.62402 -14.38867,11.57422 -13.81478,4.97337 -45.0775,-3.52417 -47.68359,-12.96094 -1.13405,-4.10619 -3.98936,-7.46679 -6.34571,-7.46679 -5.65602,0 -9.41603,29.1907 -4.77734,37.0957 2.63482,4.49099 3.66112,3.01376 3.75976,-5.39648 0.0728,-6.36779 1.9395,-10.51924 4.14844,-9.22657 2.20891,1.29271 14.1882,4.17594 26.61914,6.40821 18.97746,3.40784 25.57466,2.81435 41.14453,-3.70704 15.07677,-6.31487 18.54297,-9.80425 18.54297,-18.6621 0,-14.54053 -10.23415,-19.07654 -49.36719,-21.87891 -17.73732,-1.27022 -32.16542,-3.4317 -32.0664,-4.80469 0.10031,-1.37299 4.52821,-18.2625 9.83984,-37.53125 l 9.65821,-35.0332 44.57031,1.17578 44.57031,1.17578 v -10.18164 c 0,-16.76122 7.78863,-31.32617 16.75,-31.32617 4.54231,0 20.75137,-9.45626 36.01953,-21.01367 15.26827,-11.55746 31.18727,-22.75117 35.37696,-24.875 7.48406,-3.79374 10.77893,-15.9375 4.32421,-15.9375 -1.81137,0 -9.93725,1.80629 -18.05859,4.01171 l -14.76562,4.00977 9.35351,-9.42773 c 5.14447,-5.18518 9.35352,-10.50093 9.35352,-11.8125 0,-6.10991 -14.86933,-6.71274 -26.39258,-1.07032 -13.61129,6.66471 -16.05156,13.66903 -7.56055,21.70899 4.06258,3.84684 3.82115,4.99077 -1.08789,5.14648 -3.47142,0.1101 -15.03965,10.31005 -25.70703,22.66797 l -19.39453,22.46875 h -27.93164 c -25.5704,0 -27.42612,-0.58047 -21.95703,-6.87891 19.72399,-22.71477 49.29795,-44.68189 77.79687,-57.7871 33.81056,-15.54785 38.99631,-19.56662 39.10742,-30.30079 0.0519,-4.94517 -7.40342,-2.9755 -33.66797,8.89063 -52.48932,23.71419 -55.92344,23.48967 -29.11718,-1.89258 13.02259,-12.33086 23.67773,-24.22276 23.67773,-26.42773 0,-2.20506 7.87028,-9.17403 17.49024,-15.48633 18.52425,-12.15538 20.6238,-18.24597 3.55859,-10.32227 -7.93882,3.6861 -7.06618,1.96719 3.98047,-7.84961 13.96297,-12.40844 19.27762,-23.88801 8.70508,-18.80078 -2.99267,1.43994 -0.8599,-1.20031 4.74023,-5.86718 16.93788,-14.11494 8.36697,-18.12988 -10.24414,-4.79883 -24.13958,17.29097 -26.05607,15.68762 -5.03906,-4.21289 16.43406,-15.56106 17.18273,-17.20149 9.66797,-21.1836 -5.88019,-3.11592 -10.67498,-2.86704 -17.23829,0.89649 -6.29011,3.60682 -5.15382,1.24547 3.68555,-7.66016 12.89968,-12.99632 16.61948,-25.42958 11.56055,-38.63867 -2.50503,-6.54099 -4.3517,-6.20235 -20.07813,3.66992 -9.52562,5.97967 -14.87142,8.38553 -11.8789,5.34766 7.01798,-7.12771 7.00559,-13.56839 -0.0254,-11.01368 -6.54271,2.37729 -17.05405,-7.14907 -12.77539,-11.57812 1.65165,-1.70975 -1.89369,-1.99798 -7.87891,-0.64258 -10.31558,2.33608 -10.44544,2.15512 -2.49414,-3.4707 4.61337,-3.26422 7.10982,-7.14702 5.54687,-8.62695 -1.56287,-1.47992 -5.82754,-0.34408 -9.47656,2.52343 -11.08017,8.70725 -7.40601,-1.91437 4.24805,-12.28125 12.06905,-10.73594 15.11694,-20.7835 3.5918,-11.83984 -5.8695,4.55444 -5.65952,3.28601 1.07617,-6.50977 8.30241,-12.07439 8.30049,-12.14215 -0.32031,-9.00976 -6.73286,2.4464 -5.75068,0.17152 4.36523,-10.10938 10.28262,-10.45041 11.20652,-12.63483 4.35351,-10.30273 -6.86932,2.33759 -6.02118,0.31188 4.03516,-9.62695 7.00369,-6.92194 11.27313,-13.96629 9.48828,-15.65625 -1.78469,-1.68997 -6.98541,1.53651 -11.55664,7.16992 -4.57119,5.63336 -8.35869,8.24708 -8.4082,5.80859 -0.0533,-2.43848 4.79993,-8.7911 10.78516,-14.11523 12.57407,-11.18524 14.28057,-18.60209 3.36718,-14.63672 -5.79345,2.1051 -5.2936,0.49334 2.17774,-7.03711 11.59411,-11.68574 12.4971,-17.32255 2.17578,-13.57227 -5.79364,2.1051 -5.2957,0.49336 2.17578,-7.03711 17.47892,-17.61707 10.24935,-21.70844 -8.69727,-4.92187 -17.56036,15.55839 -13.23881,8.16004 8.94532,-15.31445 5.71721,-6.0498 9.06563,-13.037958 7.43945,-15.529301 -1.62614,-2.491329 3.33839,-12.056482 11.0332,-21.25586 7.69493,-9.199385 15.17836,-14.964012 16.62891,-12.810547 4.05154,6.014809 17.76761,-0.442866 50.79297,-23.914062 29.70773,-21.113512 29.91849,-21.188236 13.0664,-4.615234 -9.42085,9.26472 -15.93824,17.970948 -14.48437,19.347656 1.45402,1.376727 13.84438,-5.544844 27.53515,-15.38086 45.51304,-32.69849241 47.73721,-33.83960137 28.20118,-14.46289 -22.92567,22.73861 -17.72174,25.150824 10.40429,4.822266 24.30014,-17.5634072 31.84779,-19.0906478 11.01368,-2.228516 -19.85133,16.066655 -8.76581,15.880392 19.27148,-0.324219 21.54807,-12.453971 21.91505,-12.5183325 11.69336,-2.060547 -15.32084,15.674616 -2.90907,13.885804 25.17773,-3.628906 12.72329,-7.9341868 24.34048,-14.42578125 25.81446,-14.42578125 1.47405,0 -4.97123,7.41868405 -14.32227,16.48632825 -18.84178,18.270651 -16.58157,20.953114 6.5293,7.751953 l 15.23437,-8.701172 -10.53711,10.761719 c -13.06231,13.342227 -9.07216,18.401501 7.13672,9.048828 l 12.10742,-6.986328 -10.41211,8.591797 c -12.43218,10.259144 -9.67792,15.177607 4.59766,8.21289 8.40257,-4.099381 9.22153,-4.012442 4.72461,0.492188 -7.95984,7.973503 -6.64356,13.303107 2.71289,10.986328 6.40203,-1.585383 7.66839,-0.25986 5.89258,6.169922 -1.98592,7.190861 -1.15159,7.625875 6.83984,3.576172 5.00516,-2.536369 10.30372,-6.456223 11.77539,-8.710938 1.47168,-2.25473 4.8852,-4.099609 7.58594,-4.099609 2.70074,0 -0.6994,5.545168 -7.55664,12.322265 -16.20563,16.016565 -12.47283,19.025915 7.58984,6.117188 21.89443,-14.087289 24.55433,-12.75582 5.84571,2.927734 -17.5954,14.750211 -20.12546,21.918398 -6.54883,18.556641 8.74794,-2.1661 8.80499,-1.941078 1.47656,5.726563 -9.23716,9.664812 -5.86444,14.363802 5.9961,8.353512 7.80548,-3.95527 8.5603,-3.11091 7.99023,8.93946 -0.41065,8.68465 1.2616,12.94984 4.8125,12.27734 6.48397,-1.22788 7.28987,5.644 1.08789,9.27344 -11.14095,6.51972 -2.72503,9.73855 9.79492,3.74609 l 14.14649,-6.77148 -15.23633,15.48047 c -12.72253,12.92796 -13.71014,15.13372 -5.99219,13.37109 7.37137,-1.68355 8.8102,-0.54884 7.10938,5.60937 -1.49167,5.40105 0.18537,7.72071 5.58007,7.72071 7.31672,0 7.3068,0.42418 -0.1914,8.26953 -9.92716,10.38665 -6.10425,14.58905 7.26953,7.99219 10.1639,-5.01368 10.1625,-5.01223 -0.7168,6.45898 l -10.88086,11.47461 10.35938,-2.42578 10.35937,-2.42578 -11.44726,11.31445 c -14.47253,14.30414 -14.76296,20.04992 -0.56641,11.24219 5.98522,-3.71337 10.88281,-4.85433 10.88281,-2.53516 0,2.31917 -1.73287,4.2168 -3.85156,4.2168 -2.11873,0 -7.25247,4.91124 -11.40625,10.91406 -7.48909,10.82252 -7.46431,10.89377 2.76563,8.45703 l 10.3164,-2.45703 -9.79492,7.66016 c -12.48865,9.76758 -12.48865,14.11205 0,11.1914 7.71689,-1.80467 6.17899,0.71627 -7.25391,11.88477 -9.37678,7.79611 -15.7901,15.36584 -14.25195,16.82227 1.53804,1.45643 5.78074,0.3011 9.42969,-2.56641 3.6542,-2.87161 6.63476,-3.36193 6.63476,-1.0918 0,2.26692 -2.93806,6.43184 -6.52929,9.25391 -8.83688,6.94417 -8.28272,13.88252 0.84375,10.5664 6.46238,-2.34823 6.3802,-1.63838 -0.67383,5.74219 -4.93792,5.16629 -6.00586,8.41992 -2.76367,8.41992 2.90577,0 3.88269,2.14752 2.16992,4.77149 -2.15153,3.29629 -0.0884,4.02208 6.67383,2.34765 9.42875,-2.33466 9.50761,-2.13105 2.1582,5.5586 -8.05361,8.42641 -5.17479,16.82391 3.08594,9.00195 7.48872,-7.09085 17.60241,3.12763 10.92187,11.03516 -4.06125,4.80713 -3.5684,5.39036 2.61328,3.09179 20.93922,-7.78613 22.91802,-7.69922 13.0586,0.57422 -19.43981,16.31279 -8.91825,17.86342 16.82031,2.47852 21.37087,-12.7742 26.08136,-10.81719 10.1875,4.23242 -11.96175,11.32655 -11.80535,19.92164 0.19141,10.49414 5.67232,-4.45757 6.30364,-4.22412 3.99414,1.47461 -3.58887,8.8557 -1.20512,8.55373 18.61523,-2.35742 15.29668,-8.42082 16.06981,-8.50102 10.04297,-1.03125 -3.59109,4.45092 -9.46751,10.35173 -13.05859,13.11328 -13.92151,10.7054 5.43305,5.18053 25.48633,-7.27539 l 20.21874,-12.55859 -20.42187,18.74218 c -20.09527,18.44092 -20.85599,23.38281 -2.14453,13.94336 8.59488,-4.33587 8.93554,-4.1363 3.53516,2.0625 -7.52377,8.63588 -1.18638,8.87657 11.53515,0.43946 5.32089,-3.52891 9.67383,-4.56441 9.67383,-2.30274 0,2.26167 -1.95951,5.25717 -4.35352,6.6582 -2.39412,1.40104 -4.35351,4.50652 -4.35351,6.90039 0,2.43228 4.73476,1.41517 10.73047,-2.30468 15.5991,-9.67794 18.39664,-8.15916 6.69726,3.63281 -14.40184,14.51569 -9.10131,16.14538 11.11524,3.41797 l 17.16406,-10.80664 -12.74219,12.93359 c -18.38658,18.66282 -11.71789,19.64037 15.37695,2.25586 l 23.48243,-15.06641 -15.23633,15.59571 c -9.22294,9.44024 -12.2065,14.57947 -7.5625,13.02344 6.47408,-2.16926 7.21996,-0.86729 4.77734,8.34765 l -2.89453,10.91992 16.98633,-9.73437 c 15.05824,-8.62851 16.12173,-8.79002 9.36914,-1.42969 -11.15659,12.16086 -9.3055,15.04665 4.35352,6.78906 10.81987,-6.54145 11.41102,-6.56743 6.15429,-0.27539 -3.19925,3.82866 -4.57635,8.85835 -3.0625,11.17774 1.51385,2.3193 0.54446,8.12361 -2.15429,12.89843 -7.25172,12.83003 -0.55761,15.65748 8.98046,3.79297 7.96505,-9.90765 8.15278,-9.93927 5.72461,-0.96875 -2.73243,10.09459 2.40643,12.17281 10.69336,4.32618 4.06234,-3.84688 5.22266,-3.41834 5.22266,1.92187 0,5.01986 7.90103,1.24232 29.38281,-14.04492 16.16017,-11.50016 31.8297,-21.8358 34.82227,-22.96875 2.99267,-1.13299 5.4414,-3.75379 5.4414,-5.82422 0,-2.07046 -8.32507,0.15305 -18.5,4.94141 l -18.5,8.70703 10.88282,-9.78321 c 5.9852,-5.38046 18.46192,-15.21473 27.72656,-21.85351 21.469938,-15.38468 12.438712,-18.90396 -10.93164,-4.25977 -26.25175,16.44968 -24.16735,10.54317 2.81055,-7.96484 23.29325,-15.98007 29.355455,-29.70157 7.19726,-16.29102 l -11.56836,7 9.57227,-9.9082 c 8.15316,-8.44112 9.014263,-12.24097 5.82031,-25.65039 -4.75539,-19.96445 -5.9485,-20.93917 -18.2832,-14.90625 -8.00537,3.91545 -6.97766,1.79531 4.83398,-9.9707 8.25043,-8.21854 13.66477,-14.94141 12.0332,-14.94141 -1.6316,0 4.350221,-6.60466 13.292972,-14.67578 l 16.259766,-14.67383 -15.234375,6.61914 c -14.564973,6.32803 -14.277663,5.79871 6.529297,-12.03125 12.717566,-10.89786 18.959988,-18.68727 15.017578,-18.73633 -3.71091,-0.0466 -9.572509,2.23472 -13.02539,5.06836 -3.45292,2.83365 -0.540397,-0.87667 6.472656,-8.24414 14.474252,-15.20557 8.305854,-17.6227 -12.146485,-4.75976 l -13.730469,8.63476 14.185548,-11.72656 c 16.363222,-13.52655 18.582271,-20.4036 4.314453,-13.37305 -9.596969,4.72903 -9.582673,4.60794 0.757812,-6.03711 5.804096,-5.97495 8.993439,-10.86328 7.085938,-10.86328 -1.90757,0 -0.991355,-2.82607 2.037109,-6.28125 7.463195,-8.51498 1.991036,-12.7205 -7.599609,-5.83984 -6.584417,4.7239 -6.920314,4.68966 -2.28125,-0.23633 6.500745,-6.9027 7.240039,-13.91276 1.08789,-10.3125 -7.403214,4.33244 -4.807081,-4.52176 4.669922,-15.92969 9.869666,-11.88082 6.70212,-14.06635 -6.589844,-4.54687 -4.647201,3.32827 -10.496714,6.05078 -12.998047,6.05078 -2.501332,0 1.757217,-4.17289 9.462891,-9.27344 13.702466,-9.0699 17.976114,-15.45508 10.341797,-15.45508 -2.100816,0 -6.259801,2.78128 -9.240234,6.18164 -2.980362,3.40037 -7.318189,6.18165 -9.640625,6.18165 -2.32255,0 3.304619,-7.05179 12.503906,-15.67188 9.199393,-8.62009 18.308422,-14.93572 20.242187,-14.03516 1.933728,0.90055 11.726989,-3.49041 21.763672,-9.75781 10.036719,-6.2674 15.561114,-8.29756 12.275391,-4.51172 -8.86264,10.21153 3.787104,9.25668 18.042969,-1.36133 6.0871514,-4.53382 12.7179553,-8.18378 14.7343746,-8.11132 2.0165651,0.0721 -0.1091354,2.83382 -4.72265622,6.13867 -4.61341148,3.30485 -7.02785148,7.29665 -5.36718748,8.86914 1.6607006,1.57247 5.33692179,0.66298 8.1699219,-2.01953 6.4515176,-6.10886 13.6333032,-6.41458 9.7167972,-0.41406 -1.601844,2.45415 3.126433,1.50495 10.507812,-2.10938 11.702724,-5.73013 13.098375,-5.77311 10.896484,-0.33984 -3.400203,8.38998 2.129725,7.81822 19.082032,-1.96875 16.356325,-9.44287 18.56497,-7.07693 4.353515,4.66406 l -9.794921,8.0918 10.882812,-2.80079 c 5.985233,-1.54046 16.759181,-5.43308 23.941406,-8.65039 l 13.058594,-5.84961 -13.058594,10.47266 c -12.922775,10.36396 -9.048384,14.28667 6.386719,6.46484 6.74321,-3.41693 7.632479,-2.7454 5.6875,4.29688 -1.267948,4.59104 -0.585815,7.87497 1.515625,7.29687 2.101436,-0.57815 8.22856,1.26157 13.61523,4.08985 7.00529,3.67813 12.19053,3.92875 18.21289,0.87695 13.82834,-7.00759 16.27735,-4.6756 4.63868,4.41797 -10.30718,8.05334 -10.38028,8.40105 -1.41211,6.55859 6.78529,-1.39413 8.81071,-0.3271 7.15039,3.76953 -3.26241,8.05032 4.15409,7.11445 23.39648,-2.95507 l 16.57227,-8.67383 -15.23633,12.68359 c -15.25631,12.70066 -12.1339,17.12051 5.72852,8.10938 8.64043,-4.35886 8.95364,-4.16204 3.44531,2.16015 -8.93744,10.25774 -2.96772,12.61959 10.60742,4.19727 11.81388,-7.32954 11.82704,-7.3257 8.58203,2.35547 -2.61029,7.78729 -1.90941,9.20821 3.56055,7.2207 4.7189,-1.71452 6.0659,-0.64034 4.38867,3.49805 -3.07202,7.58023 0.14129,7.51667 16.13867,-0.31641 13.47063,-6.59585 18.39919,-1.18612 5.26172,5.77539 -4.1703,2.20954 -6.1892,5.33474 -4.48828,6.94531 1.70092,1.61054 8.53882,-0.22272 15.19727,-4.07421 L 243.1543,214.5 l -12.83594,11.07422 -12.83789,11.07422 14.05078,-2.92188 c 10.59048,-2.20254 13.75025,-1.56616 12.83594,2.58399 -0.75711,3.43702 1.96911,4.97947 7.25781,4.10742 7.59633,-1.25249 7.82253,-0.64933 2.17773,5.83594 -5.80619,6.67061 -5.33765,7.00591 6.03907,4.32226 7.5688,-1.78544 11.33207,-1.37258 9.74023,1.06641 -1.42699,2.18622 0.31769,4.57813 3.875,5.3164 4.25458,0.88299 5.20488,3.25206 2.7793,6.92383 -2.89582,4.38346 -15.96011,-0.23454 -60.84571,-21.50781 -31.43693,-14.89934 -70.37037,-35.15588 -86.51953,-45.01562 -48.748161,-29.76279 -83.542528,-39.10405 -137.0956994,-36.80469 -32.0016696,1.37402 -24.4204796,7.67302 12.4101563,10.31054 41.7606381,2.99058 80.0934411,17.71449 123.6171831,47.48047 45.82447,31.33956 152.88285,80.579 170.01954,78.19727 8.9821,-1.24833 11.67029,-0.48684 8.58593,2.43359 -6.43214,6.09042 -5.66976,16.09677 0.95118,12.48438 2.99267,-1.6328 1.03327,1.62412 -4.35352,7.23633 -5.38667,5.6122 -9.79297,12.38636 -9.79297,15.05468 0,2.66833 -3.91892,7.16859 -8.70703,10 -10.7251,6.34217 -11.49872,13.24063 -1.08789,9.69922 4.18967,-1.42518 0.95375,3.041 -7.19141,9.92383 -16.54573,13.98173 -15.43898,21.37765 1.61524,10.79688 15.17252,-9.41329 13.79883,-4.90222 -3.12891,10.27734 -10.24166,9.18387 -11.74638,11.93935 -5.44922,9.98242 6.94298,-2.15762 6.06385,-0.0564 -4.35351,10.41406 -12.93969,13.00562 -12.95711,13.09274 -2.16797,10.05664 l 10.88086,-3.0625 -9.79297,10.05078 c -11.73503,12.04343 -12.58426,17.52181 -2.17578,14.0293 4.53997,-1.52337 3.24578,0.68178 -3.20118,5.45899 -14.22749,10.54269 -8.15249,15.89908 7.41797,6.54101 10.25894,-6.16581 9.61573,-4.80793 -4.21679,8.89063 -17.88796,17.71476 -20.39037,23.18306 -8.70703,19.03711 6.67077,-2.3672 6.8761,-1.83789 1.64453,4.25195 -5.28932,6.15711 -4.79182,6.96934 4.35156,7.08008 9.11117,0.11059 9.43169,0.61966 2.71094,4.32617 -10.97767,6.05431 -9.47079,13.43672 2.17578,10.6582 9.09315,-2.1693 9.23027,-1.93624 1.91601,3.2461 -9.0048,6.3801 -3.69531,11.91775 5.91016,6.16406 12.28399,-7.3581 14.2349,-3.7759 3.81445,7.00195 l -10.55273,10.91602 10.19531,-2.38477 c 10.02166,-2.34433 10.058,-2.23896 2.17578,6.21875 -7.85605,8.42975 -7.82571,8.55739 1.45117,6.36133 6.87057,-1.62641 8.83132,-0.67297 7.15039,3.47461 -2.97848,7.34959 2.85533,7.09308 13.59376,-0.59766 4.6472,-3.32829 10.47018,-6.05078 12.93945,-6.05078 2.46913,0 0.13536,2.88715 -5.18555,6.41602 -12.10952,8.03134 -13.11529,16.22565 -1.2539,10.21484 12.97151,-6.57332 15.4834,-5.09284 6.79101,4.00195 -9.86162,10.318 -4.99089,15.84171 7.83984,8.89063 8.68337,-4.70408 8.60582,-4.3861 -0.81445,3.34961 -15.25755,12.52913 -8.01017,14.85916 13.48828,4.33594 l 18.6875,-9.14844 -13.05859,13.34766 c -13.49581,13.79482 -11.49311,14.69289 13.05859,5.85156 7.15882,-2.57798 7.7379,-2.14793 3.26367,2.41797 -8.26262,8.43182 -6.4991,14.28616 2.17774,7.23047 16.44827,-13.37522 19.88983,-12.01945 5.67578,2.23632 -10.86514,10.8971 -13.03676,15.04492 -7.875,15.04492 3.91945,0 8.33671,-1.8542 9.81641,-4.12109 1.47955,-2.26692 4.83706,-4.12305 7.46093,-4.12305 2.62385,0 1.22588,3.71034 -3.10742,8.24414 -9.75104,10.20254 -1.96334,10.87841 14.29883,1.24024 l 11.81836,-7.00391 -9.79492,10.35938 c -13.31735,14.08792 -12.32414,18.50202 2.17578,9.66601 l 11.9707,-7.29492 -8.3164,8.90625 c -8.70622,9.32406 -6.21776,18.08608 2.73046,9.61328 7.18802,-6.80617 12.33381,-6.0875 9.3379,1.30469 -3.28029,8.09427 2.60781,7.83616 15.95703,-0.69922 l 10.76171,-6.88086 -10.55273,11.00196 c -11.34497,11.8292 -9.72905,13.7375 5.39844,6.37695 7.8373,-3.8132 8.55146,-3.66854 4.0664,0.82422 -8.69249,8.7075 -6.30078,12.77 4.35352,7.39453 8.61067,-4.34442 9.12701,-4.1769 4.27734,1.39258 -3.03329,3.48419 -4.29333,9.35333 -2.79882,13.04101 3.07079,7.57727 8.66397,8.71658 12.66796,2.58203 1.47969,-2.26692 4.87477,-4.12109 7.54493,-4.12109 2.67001,0 0.2537,4.6374 -5.36914,10.30469 -7.39151,7.44994 -8.44459,10.30468 -3.80469,10.30468 3.52955,0 8.76777,-2.22698 11.64062,-4.94726 3.76249,-3.56239 5.22266,-3.62955 5.22266,-0.24219 0,2.58652 -1.95746,5.84897 -4.35156,7.25 -2.39414,1.40103 -4.35352,5.32815 -4.35352,8.72852 0,3.4001 1.95938,5.03775 4.35352,3.63672 2.3941,-1.40104 4.35156,-0.69267 4.35156,1.57421 0,2.26693 -1.95746,5.26694 -4.35156,6.66797 -2.39414,1.40104 -4.35352,8.00299 -4.35352,14.66993 h 0.002 c 0,6.66693 1.10193,12.12109 2.44922,12.12109 1.34718,0 7.99953,-11.59156 14.78125,-25.75977 C 497.36662,658.67848 514.22651,534.5821 506.33984,456.30469 488.72139,281.4375 421.0694,141.53585 297.89844,25.259766 205.56878,-61.901524 102.1161,-117.01904 -29.898438,-149.38477 -87.98455,-163.6255 -132.60226,-168.30284 -209.42773,-168.20703 Z m -347.9336,231.98828 c -20.91594,0.221602 -44.16127,6.213717 -70.30273,17.933594 -40.45455,18.136815 -66.75828,46.098166 -86.63282,92.093746 -9.30549,21.53566 -20.49898,42.98414 -24.875,47.66407 -4.37597,4.67994 -7.95703,13.20288 -7.95703,18.93945 0,15.66328 13.01758,24.217 38.41211,25.24023 l 22.17188,0.89258 2.86719,21.7207 c 2.17489,16.47472 5.56512,23.7305 14.03515,30.03907 20.36206,15.16601 34.12061,4.92647 16.97656,-12.63477 -5.51599,-5.65021 -11.43149,-13.75276 -13.14453,-18.00586 -2.93136,-7.2779 -2.49821,-7.35229 7.34375,-1.24609 12.90082,8.00389 16.73202,5.10419 10.46485,-7.91992 -4.98112,-10.35162 -16.37717,-13.62656 -16.48828,-4.74024 -0.0446,3.43476 -1.47213,3.09041 -4.28516,-1.03125 -6.63379,-9.71981 -5.4342,-11.67415 12.47656,-20.32617 9.25667,-4.47154 22.47936,-12.61552 29.38281,-18.09766 12.48775,-9.91683 22.86465,-13.03017 56.08008,-16.82226 l 17.41211,-1.98828 -17.41211,7.70312 c -9.5763,4.23686 -19.86096,7.84165 -22.85351,8.00977 -2.99271,0.16812 -5.43946,2.71255 -5.43946,5.6543 0,4.0509 8.63038,5.0393 35.59961,4.07226 19.58053,-0.70213 36.4108,-2.04209 37.40039,-2.97852 2.80351,-2.65467 -9.03042,-31.17187 -12.93554,-31.17187 -1.91305,0 -3.47852,-1.70579 -3.47852,-3.79102 0,-3.88738 53.37149,-16.81835 69.41797,-16.81835 14.42453,0 10.3764,12.2153 -6.22461,18.7832 -19.31618,7.64199 -24.00353,22.09363 -11.89453,36.66992 4.75087,5.71896 9.96423,18.76646 11.58398,28.99414 1.61983,10.22765 4.78391,18.5957 7.03125,18.5957 6.47732,0 4.74736,-28.05146 -2.55468,-41.42187 l -6.64258,-12.16016 h 13.45703 c 7.40111,0 17.2462,-1.92092 21.87695,-4.26758 10.01216,-5.07372 11.09245,-21.47388 1.89063,-28.70507 -3.59112,-2.82207 -6.5293,-10.52879 -6.5293,-17.125 0,-8.58507 -2.78409,-13.05238 -9.79492,-15.72071 l -9.79297,-3.72656 9.79297,-0.26172 c 12.1135,-0.32313 12.74235,-9.83689 1.36133,-20.61328 -4.89052,-4.63033 -6.45928,-8.60803 -3.73243,-9.46875 6.84144,-2.15933 -7.79497,-29.35638 -23.74609,-44.123046 -20.38636,-18.872686 -43.42643,-28.124761 -70.31836,-27.839844 z m -13.28125,12.363281 c 2.5185,0.04788 6.73892,0.435115 12.8086,1.140625 25.40485,2.952941 39.56409,9.229802 54.13867,24.001954 8.65425,8.7714 9.2405,10.69531 3.26367,10.69531 -8.76733,0 -9.69226,10.6257 -1.32813,15.25196 3.2775,1.81282 7.20451,7.10312 8.72657,11.75585 1.52175,4.65275 0.30858,11.63927 -2.69532,15.52539 -4.93458,6.38395 -6.05269,5.80173 -11.58203,-6.03906 -3.36578,-7.20786 -5.87198,-19.29634 -5.57226,-26.86133 0.43457,-10.94688 -1.1423,-13.7539 -7.72461,-13.7539 -5.26281,0 -8.7774,-3.37231 -9.66211,-9.273439 -1.14641,-7.643362 -3.87731,-9.137514 -15.53711,-8.496094 -7.78076,0.428069 -14.14648,-1.023311 -14.14648,-3.224609 0,-2.201288 -4.40823,-5.824004 -9.79493,-8.052735 -4.56432,-1.888438 -5.09203,-2.74973 -0.89453,-2.669922 z m -19.78125,3.21875 c 4.3053,0.149394 3.56258,1.431906 -2.17773,3.767578 -11.96678,4.869003 -18.83783,4.869003 -10.88086,0 3.59112,-2.197493 9.46747,-3.892227 13.05859,-3.767578 z m -130.33008,3.767578 c -2.53538,0 -4.60937,1.856143 -4.60937,4.123047 0,2.266916 0.86369,4.121094 1.91992,4.121094 1.0557,0 3.12965,-1.854178 4.60938,-4.121094 1.47953,-2.266904 0.61546,-4.123047 -1.91993,-4.123047 z m 238.47852,41.734371 c 3.77414,-0.15686 9.37891,4.01759 9.37891,7.96875 0,2.13313 -1.84288,3.87891 -4.09571,3.87891 -5.1357,0 -10.62975,-8.03784 -7.51172,-10.99023 0.58464,-0.55358 1.35756,-0.82123 2.22852,-0.85743 z m -39.71094,28.54297 c 2.08057,0 5.65178,1.30393 9.91406,3.91211 5.62651,3.44318 5.51131,4.00368 -0.83203,4.0586 -4.04836,0.0347 -8.57124,-1.79169 -10.05078,-4.0586 -1.70241,-2.60818 -1.11181,-3.91211 0.96875,-3.91211 z m 484.789064,20.75196 c -1.952978,-0.0484 -5.205961,2.31252 -9.490234,7.3164 -10.974864,12.81805 -10.520143,20.18061 2.705078,43.73242 12.655002,22.53661 18.644793,53.1903 11.240234,57.52344 -2.676194,1.56615 -4.865234,8.07458 -4.865234,14.46485 0,9.67541 -4.020113,13.92528 -24.033203,25.41015 -13.809827,7.92501 -23.14755,15.97177 -21.953125,18.91797 1.142835,2.81991 -0.092,6.39713 -2.744141,7.94922 -8.703001,5.09292 10.311311,13.92969 29.97461,13.92969 10.315816,0 18.755859,1.96453 18.755859,4.36523 0,2.40069 -1.959396,3.21744 -4.353516,1.81641 -5.751756,-3.36616 -5.622915,7.45351 0.154297,12.92383 3.107301,2.94221 0.430357,12.43008 -8.621093,30.55273 -11.525027,23.07507 -12.411205,27.31065 -7.251954,34.68164 3.232317,4.61813 9.560407,9.07608 14.0625,9.90625 2.792369,0.51492 4.573916,0.8011 5.402344,0.61914 -1.873367,3.96019 -4.971456,6.95863 -10.068359,11.11133 l -12.853516,10.47266 10.425781,7.99414 c 5.734995,4.39717 13.967764,7.11829 18.294922,6.04687 6.940609,-1.71855 7.867188,0.95706 7.867188,22.71289 0,21.7615 1.496807,26.07767 12.724609,36.70899 7.5430166,7.14232 17.3345997,12.04882 24.048828,12.04882 9.101917,0 11.838537,2.42818 13.9375,12.36524 1.436392,6.80073 4.342736,12.36523 6.457032,12.36523 2.114513,0 17.339811,-10.73074 33.835937,-23.8457 35.566392,-28.27646 64.393112,-38.44215 116.929692,-41.23242 19.7969,-1.05143 37.24213,-3.8201 38.76562,-6.1543 1.52361,-2.33423 3.34428,-16.59719 4.04883,-31.69531 0.70381,-15.09812 4.34954,-36.01245 8.10156,-46.47656 4.74048,-13.22026 5.97438,-25.85908 4.04297,-41.41993 -4.30517,-34.68348 2.61874,-48.97055 28.8125,-59.44921 19.36664,-7.74753 21.70313,-10.05233 21.70313,-21.40235 0,-12.55592 -9.2452,-17.77362 -15.23438,-8.59765 -1.47956,2.26691 -7.45305,4.12109 -13.27344,4.12109 -18.07303,0 -159.77471,-27.69542 -180.431638,-35.26563 C 57.891777,270.60502 25.806018,248.94936 -1.5273438,223.70898 -18.01707,208.48201 -28.902344,202.68432 -28.902344,209.12891 c 0,5.98266 27.161518,38.73108 45.136719,54.41992 21.090495,18.40773 22.565288,21.80731 4.632813,10.68164 -15.2474534,-9.45974 -18.2267158,-3.9876 -4.423829,8.125 31.285547,27.45428 109.275171,53.70091 175.564451,59.08594 17.35714,1.41002 31.5586,3.13206 31.5586,3.82617 0,4.16828 -11.43717,24.81869 -15.14649,27.34765 -9.47393,6.45914 -78.20824,3.11539 -106.08984,-5.16015 -15.207203,-4.51368 -29.897995,-9.59018 -32.646486,-11.28125 -2.748371,-1.69109 -7.93623,-3.26291 -11.527344,-3.49414 -22.963695,-1.47774 -22.971734,-1.48017 -17.654297,-7.54688 6.698427,-7.64238 -3.273422,-17.45148 -34.2968749,-33.73633 l -22.6269531,-11.8789 2.794922,-21.75977 c 2.542532,-19.79414 1.368265,-24.21694 -12.998047,-48.96484 -13.910245,-23.96225 -15.243974,-28.69532 -11.191406,-39.70313 3.549423,-9.64092 3.473493,-14.85899 0.61914,-14.92968 z M -457.4043,210.90234 c 1.05589,0 1.91992,1.85418 1.91992,4.1211 0,2.26691 -2.07399,4.12304 -4.60937,4.12304 -2.53512,0 -3.39961,-1.85613 -1.91992,-4.12304 1.47957,-2.26692 3.55318,-4.1211 4.60937,-4.1211 z m 11.19727,32.97461 c -2.86821,0 -4.99353,7.31461 -5.08008,17.51563 -0.15556,17.59011 -10.17234,63.70464 -14.78711,68.07422 -1.35776,1.28542 -2.46875,-3.53632 -2.46875,-10.71485 0,-7.17856 -1.95941,-13.05078 -4.35351,-13.05078 -2.39415,0 -4.35352,2.48502 -4.35352,5.52149 0,2.40243 -3.39167,5.9801 -8.06055,8.85742 l -58.72265,4.06836 c -5.79075,-1.68803 -10.02249,-3.75128 -10.625,-5.46289 -2.78911,-7.92257 -9.64844,-0.86449 -9.64844,9.92773 0,10.13359 9.96171,14.01757 15.23437,5.93945 0.88653,-1.35821 4.2974,-2.64355 8.76954,-3.52343 l 21.33007,-1.47852 4.72461,-0.15234 -0.79101,-0.1211 16.40429,-1.13672 15.83008,3.17188 18.38281,3.68164 -2.60351,19.35742 c -1.43252,10.64633 -5.03973,21.828 -8.01758,24.84961 -2.97789,3.02162 -16.93511,6.46009 -31.01562,7.64063 -22.79634,1.9113 -29.38222,0.50962 -60.10547,-12.80274 -20.91693,-9.06323 -36.07457,-13.46289 -38.49414,-11.17187 -5.60837,5.31047 32.01578,37.60197 56.99218,48.91406 11.19735,5.07141 17.4212,9.19833 13.83008,9.17187 -18.37496,-0.13432 -48.78924,-10.22608 -74.87304,-24.84374 l -29.16602,-16.34376 -1.30469,-23.63671 c -0.97674,-17.71394 -2.93879,-23.63672 -7.83203,-23.63672 -4.59919,0 -6.13413,3.50113 -5.1914,11.84765 0.82064,7.26682 -1.85157,15.23403 -6.91016,20.60743 -7.69353,8.17229 -27.07422,58.13612 -27.07422,69.79687 0,8.28934 38.2466,41.69658 76.17578,66.53711 26.86719,17.59578 37.62253,22.41376 47.08008,21.0918 15.46953,-2.16231 27.72546,-15.40032 34.27148,-37.02149 2.80498,-9.26472 5.54786,-17.4504 6.09571,-18.18945 0.54833,-0.73905 9.34445,7.23256 19.54687,17.71289 12.56644,12.90867 21.45569,18.6598 27.55664,17.83008 10.7223,-1.45826 13.97436,-12.38198 6.04688,-20.3086 -3.11225,-3.11187 -13.13537,-14.46569 -22.27344,-25.23046 -9.13822,-10.76478 -19.42254,-19.57227 -22.85352,-19.57227 -4.91062,0 -4.61596,-1.5974 1.38086,-7.51172 4.18969,-4.13197 15.453,-15.40185 25.0293,-25.04297 4.96513,-4.99872 10.20368,-10.20404 14.64453,-14.5664 l 2.41211,19.57617 c 1.34483,10.91902 5.24189,23.63157 8.6582,28.25 4.39076,5.93473 5.50049,14.91823 3.78711,30.63672 -1.68835,15.48926 -0.88622,22.24023 2.64453,22.24023 7.57792,0 14.42866,-20.58648 12.6875,-38.125 -0.85114,-8.50091 -1.23021,-15.45508 -0.86132,-15.45508 0.36945,0 7.2765,2.60007 15.34961,5.7793 8.07322,3.17923 26.43037,7.07522 40.79492,8.6582 14.36446,1.58298 36.25658,7.31814 48.64844,12.74414 20.12797,8.81337 23.4535,12.17515 31.18359,31.52735 4.7591,11.9142 10.01049,24.90789 11.66992,28.875 2.13577,5.10599 0.92425,7.21289 -4.15039,7.21289 -9.92896,0 -41.64453,15.75994 -41.64453,20.69336 0,2.22089 0.88128,4.03711 1.96094,4.03711 6.66594,0 50.09941,-9.49879 60.11328,-13.14649 10.15123,-3.69766 14.54569,-2.79734 28.29492,5.80078 8.95212,5.59824 23.52722,12.43809 32.39062,15.19922 8.86355,2.7611 17.22647,8.335 18.58399,12.38477 1.35741,4.04972 6.88313,9.26774 12.2793,11.5957 5.39605,2.32804 15.4298,14.20059 22.29687,26.38477 6.86711,12.18421 17.10543,28.05722 22.75195,35.27343 10.80985,13.81524 12.21231,22.74799 5.70899,36.33985 -2.81193,5.87671 -3.20856,3.8059 -1.38477,-7.21289 3.11755,-18.83603 -3.27223,-20.31417 -10.41015,-2.40821 l -5.20118,13.04883 -9.12695,-10.98828 c -5.17149,-6.22522 -13.4766,-10.98633 -19.16211,-10.98633 -23.23047,0 -63.33203,-23.587 -63.33203,-37.25 0,-10.06087 -12.37996,-16.15596 -38.83789,-19.12304 -13.43547,-1.50671 -25.68888,-6.04667 -33.51953,-12.41797 -14.70637,-11.96542 -19.70471,-5.46332 -7.59766,9.88281 7.86953,9.97493 26.35675,20.83548 50.07617,29.41992 l 11.47461,4.15235 -8.82617,28.125 c -7.15209,22.79161 -8.91434,40.75156 -9.29687,94.73632 -0.52956,74.64541 1.16096,72.53382 -30.92969,38.6211 -9.58399,-10.12808 -23.44684,-24.7651 -30.80664,-32.52735 -7.35977,-7.76228 -15.72944,-13.37259 -18.59961,-12.46679 -8.48446,2.67794 39.09207,68.16845 72.94336,100.4082 l 30.64062,29.18164 -3.73632,22.38672 c -3.87506,23.21148 4.6466,64.50156 12.3789,59.97656 2.01126,-1.17698 8.0192,-17.44295 13.34961,-36.14844 6.09406,-21.38498 13.29389,-37.08471 19.39649,-42.29101 24.11957,-20.57692 65.44493,-54.11067 72.71289,-59.00391 5.05698,-3.40471 8,-10.49673 8,-19.27929 0,-18.49762 13.8303,-28.42677 48.623044,-34.90821 31.382876,-5.84617 95.4934454,-32.13379 114.609375,-46.99414 12.858746,-9.99613 12.925977,-10.24932 4.353515,-16.57617 -12.837275,-9.47441 -28.0160047,-8.12735 -63.753906,5.66211 -30.560884,11.7919 -46.292653,15.82404 -35.988281,9.22461 8.008165,-5.12886 15.076756,-29.2056 9.527344,-32.45313 -7.706253,-4.50977 -26.564271,21.24529 -41.832031,57.13282 -3.93537,9.24997 -27.69328,23.81445 -38.84766,23.81445 -4.38005,0 3.41223,-44.88674 11.5586,-66.58398 4.54972,-12.1177 10.74385,-29.91444 13.76562,-39.54883 3.02171,-9.63436 6.97675,-17.51758 8.78906,-17.51758 7.127354,0 43.193364,16.39638 43.193364,19.63672 0,1.89411 -2.317389,5.63974 -5.150391,8.32226 -9.282811,8.78971 0.01357,10.22262 12.517578,1.92969 6.721603,-4.45788 14.948613,-7.19893 18.283203,-6.0918 8.038066,2.66861 74.466797,-11.80824 74.466797,-16.22851 0,-5.57004 -27.8467528,-3.95805 -48.013672,2.77929 -10.250819,3.42456 -19.359956,5.54411 -20.242187,4.70899 -0.881977,-0.83509 9.706891,-10.56275 23.5312499,-21.61719 13.8243946,-11.0544 27.6100091,-23.26003 30.6347661,-27.12304 8.618493,-11.00682 41.940578,-30.91334 55.873046,-33.37891 6.944954,-1.22899 17.524533,-3.4124 23.509766,-4.85156 5.98523,-1.43913 -1.58146,3.25652 -16.814453,10.43554 -24.891882,11.73098 -28.798525,15.33194 -38.580078,35.5625 -7.220361,14.93428 -9.424761,23.89195 -6.550781,26.61328 5.484529,5.19315 21.891277,-3.94913 25.291015,-14.09179 2.700371,-8.05633 11.514386,-7.27675 45.359377,4.01172 28.56789,9.52837 51.63846,25.7651 84.8164,59.6875 72.24922,73.87041 109.27144,172.48924 112.30274,299.15624 1.08261,45.2372 5.07198,41.5178 -53.47266,49.8477 -110.42404,15.7114 -253.05706809,22.2805 -312.32031,14.3847 -23.17333,-3.0874 -24.763395,4.12 -2.447266,11.0938 10.692896,3.3415 30.199087,4.1999 58.4140629,2.5722 23.2983071,-1.3439 48.7748701,-0.7028 56.6132811,1.4258 19.176132,5.2075 190.175022,-2.2163 222.193362,-9.6465 l 24.63086,-5.7148 1.69726,13.7656 c 1.93054,15.6578 7.57865,13.6585 -68.36914,24.2012 -77.26694,10.7258 -159.466799,15.4629 -226.3515606,13.043 -35.9113834,-1.2993 -69.4561164,-3.5457 -74.5449214,-4.9922 -7.108823,-2.0207 -9.890929,-7.0859 -12.009766,-21.8614 -1.516827,-10.5771 -5.815059,-27.9816 -9.550781,-38.6757 -11.144134,-31.9019 -7.965121,-39.7755 24.283203,-60.14261 15.561573,-9.82821 38.26934,-25.15528 50.460937,-34.0586 12.1916702,-8.90332 24.409627,-16.1875 27.152344,-16.1875 2.742681,0 16.951981,14.3748 31.576172,31.94336 30.205387,36.28695 39.939509,45.43765 59.191403,55.64255 12.49178,6.6216 27.5,9.6216 27.5,5.4981 0,-0.9426 -24.38522,-25.0028 -54.187497,-53.46877 -29.802395,-28.46597 -52.626558,-52.66908 -50.722656,-53.78321 1.903901,-1.11416 9.147529,3.64562 16.097656,10.57618 18.187926,18.1367 45.271008,37.95115 48.148438,35.22656 1.354934,-1.28296 -9.850513,-13.77632 -24.900391,-27.76367 L 39.230469,922.99805 58.488281,908.17383 c 25.677997,-19.76652 69.181819,-59.69494 69.255859,-63.56445 0.14054,-7.27601 -10.83801,-1.69198 -38.216796,19.4414 -24.198316,18.6785 -81.8448138,59.62238 -151.074219,107.30078 -28.107764,19.35784 -102.016695,61.72744 -138.726565,79.52734 -31.67011,15.3562 -39.88656,17.8389 -45.70508,13.8027 -3.90168,-2.7064 -15.91025,-8.6812 -26.68359,-13.2754 -49.96666,-21.3075 -82.10959,-44.0679 -143.24219,-101.43159 -24.91668,-23.38057 -46.95391,-42.51172 -48.9707,-42.51172 -5.71253,0 -4.31732,-11.70471 2.5957,-21.7832 3.44391,-5.0208 12.0582,-23.43153 19.14258,-40.91211 8.84776,-21.83188 20.04929,-39.58674 35.77734,-56.70899 12.59332,-13.7097 21.66189,-26.09608 20.15235,-27.52539 -4.23349,-4.00871 -32.74033,18.22664 -43.45703,33.89649 -5.27093,7.70717 -10.56287,14.02382 -11.75977,14.03515 -4.89554,0.0514 -21.76367,-27.84769 -21.76367,-35.99609 0,-4.82649 -1.81202,-9.83554 -4.02539,-11.13086 -2.21348,-1.29528 -12.98732,-13.64532 -23.94141,-27.44336 l -19.91601,-25.08789 v -36.68555 c 0,-20.17761 0.81964,-36.6875 1.82031,-36.6875 1.0012,0 5.25856,-1.24827 9.46094,-2.77539 5.89073,-2.14057 7.00105,-1.19727 4.8457,4.1211 -4.01631,9.91033 0.92127,19.26367 10.16992,19.26367 7.05275,0 7.88408,-3.50464 7.33008,-30.91211 -0.41163,-20.37672 -2.34492,-30.91211 -5.67578,-30.91211 -2.77924,0 -7.42738,-11.42368 -10.32813,-25.38477 -12.46269,-59.98125 -34.08076,-104.89856 -27.95312,-58.08007 2.41708,18.46813 16.32002,76.09085 21.35937,88.52539 1.27234,3.13973 -2.53732,11.05392 -8.46679,17.58789 -11.39002,12.55128 -14.59099,25.41092 -16.5625,66.55078 -1.09051,22.75631 0.17174,27.13767 12.49414,43.38476 7.53891,9.94012 19.84251,29.50461 27.33984,43.47461 7.49726,13.97001 19.59475,30.15036 26.88281,35.95704 12.71418,10.12996 13.03558,11.18376 7.97071,26.01171 -7.41914,21.72015 -19.65873,43.90142 -27.72266,50.23829 -8.96916,7.04825 -8.6811,16.22461 0.76953,24.5 4.18968,3.66863 15.65406,15.94315 25.47656,27.27539 L -435,954.86328 l -26.87695,-1.34961 -26.87696,-1.34961 -0.1875,-13.07617 c -0.10325,-7.19191 -2.22776,-20.12716 -4.7207,-28.74414 -3.02627,-10.46135 -3.19417,-29.63461 -0.50391,-57.70313 3.90127,-40.70554 1.96568,-77.28333 -4.70507,-88.89453 -1.78296,-3.10344 -4.64984,25.83661 -6.36914,64.3125 -2.66332,59.60183 -2.08829,72.30528 3.8789,85.82813 4.01239,9.09248 5.90033,20.63126 4.41992,27.01367 -2.54861,10.98709 -3.20983,11.18261 -47.65039,14.05078 -24.78527,1.59969 -47.19386,1.66112 -49.79882,0.13672 -2.60489,-1.5244 -4.73633,-0.0347 -4.73633,3.31055 0,3.34526 2.44874,7.08987 5.4414,8.32226 2.99252,1.23254 -0.20183,1.12515 -7.09765,-0.23828 -9.5249,-1.88334 -12.05546,-1.1002 -10.53125,3.25586 1.10347,3.15356 10.66155,7.22639 21.24218,9.05274 10.5806,1.82634 30.50156,5.32684 44.26758,7.77734 l 25.0293,4.45508 0.0606,16.95316 c 0.088,25.0813 3.55803,33.312 17.27148,40.9824 10.62482,5.9423 26.19922,5.9212 26.19922,-0.035 0,-4.5546 -13.04027,-13.6894 -19.54102,-13.6894 -6.19279,0 -6.71892,-3.8334 -4.10156,-29.8828 3.42134,-34.05082 4.1829,-36.06449 13.63867,-36.06449 5.91024,0 6.55612,4.668 4.52735,32.69529 -1.30156,17.9823 -1.46729,33.546 -0.36914,34.586 1.09829,1.0398 6.06059,0.8841 11.02734,-0.3457 8.41701,-2.0842 8.87485,-4.3943 6.73242,-33.9903 l -2.29883,-31.75388 18.79883,-4.07227 18.79883,-4.07422 32.7793,30.04883 c 18.02872,16.52634 37.50325,32.97824 43.27734,36.56054 8.23905,5.1116 11.11494,11.4733 13.35938,29.5547 1.57285,12.672 6.54483,31.6338 11.05078,42.1367 4.5059,10.5029 9.42376,22.6519 10.92773,26.9981 1.98474,5.7354 4.04485,6.6616 7.51172,3.3789 3.46698,-3.2828 2.80196,-13.8046 -2.42578,-38.3711 -3.96141,-18.6158 -6.42395,-34.5836 -5.47266,-35.4844 0.95134,-0.9008 11.08508,3.0733 22.51953,8.8301 11.43446,5.7568 25.15474,10.4668 30.49024,10.4668 5.33556,0 12.13881,2.7812 15.11914,6.1816 2.98036,3.4004 8.25618,6.1836 11.72265,6.1836 3.46651,0 32.85324,-13.8777 65.30469,-30.8379 32.45145,-16.9602 60.71616,-29.833 62.81055,-28.6074 2.09428,1.2256 3.80859,9.3043 3.80859,17.9531 0,8.6489 2.86705,23.423 6.37305,32.832 11.347695,30.4543 7.939201,183.7845 -4.50977,202.8575 -1.30756,2.0031 -44.86676,3.6121 -96.79687,3.5781 -68.7025,-0.046 -92.63964,-1.2737 -87.88867,-4.5098 5.20724,-3.5467 4.76719,-3.8157 -2.17578,-1.33 -4.78824,1.7141 -16.54086,3.6097 -26.11719,4.2128 -9.57633,0.6031 -13.28439,0.2082 -8.24024,-0.8769 6.26903,-1.3487 10.8969,-7.4505 14.62696,-19.2813 3.00121,-9.5192 6.73683,-18.2337 8.30078,-19.3671 5.91785,-4.2888 18.90744,-77.976 21.07031,-119.5293 1.98114,-38.0593 1.48281,-42.5308 -4.12695,-37.0938 -4.02496,3.901 -8.93524,25.9548 -13.30469,59.7637 -4.06085,31.4206 -10.70684,62.1046 -16.07031,74.1894 l -9.14649,20.6075 2.42969,-23.9844 c 2.66693,-26.3194 -3.56945,-29.2078 -8.3789,-3.8809 -4.99493,26.3026 -20.93009,73.4953 -22.97071,68.0274 -1.06287,-2.8479 -4.21382,-3.8331 -7.00195,-2.1895 -5.38738,3.1757 -89.56208,6.0197 -94.39844,3.1895 -1.57122,-0.9196 -0.2747,-13.3395 2.88086,-27.5996 6.49606,-29.3567 7.73261,-56.337 2.3125,-50.4512 -1.98312,2.1536 -10.15407,18.7534 -18.1582,36.8887 -8.0041,18.1353 -15.7685,34.3511 -17.25586,36.0351 -1.48717,1.684 -54.65748,4.2611 -118.1543,5.7266 l -115.44726,2.666 -10,-26.3359 c -5.49994,-14.4842 -13.69781,-32.1173 -18.2168,-39.1856 -8.98016,-14.0465 -10.69746,-28.4869 -3.86328,-32.4863 5.32308,-3.1151 5.82047,-18.5489 0.59765,-18.5489 -4.45534,0 -12.11536,-45.7811 -15.86132,-94.7968 -1.94106,-25.3988 -0.82051,-41.7499 4.07617,-59.4532 4.35193,-15.7361 5.99105,-34.05673 4.60937,-51.52144 -4.94717,-62.53092 -5.39887,-85.96912 -1.76172,-91.4082 2.88692,-4.31732 3.87041,-3.38501 3.91993,3.7168 0.0979,13.9305 10.95071,31.47572 27.68945,44.76367 13.53082,10.74149 14.94753,14.08112 17.19336,40.55664 2.308,27.20583 1.46721,30.87971 -14.72266,64.40233 -17.11786,35.444 -23.11539,61.753 -14.85742,65.1699 11.01615,4.5583 56.52218,-105.75295 53.55469,-129.82223 -2.06071,-16.71368 -0.34909,-17.13014 20.16211,-4.90235 13.32268,7.94238 15.46571,11.34444 14.92773,23.69922 -1.13567,26.11176 0.48954,37.64046 4.94141,35.03516 2.39414,-1.401 4.66825,-9.3946 5.05078,-17.76172 l 0.69726,-15.21289 1.76172,13.47461 c 2.75789,21.0906 9.90235,11.1934 9.90235,-13.7168 0,-22.34759 -6.40088,-30.77817 -9.98633,-13.15234 -1.45501,7.15533 -2.02074,6.39915 -2.47852,-3.3125 -0.69097,-14.67247 -16.16959,-29.89523 -54.3164,-53.41406 -27.98317,-17.2526 -27.18025,-16.08226 -31.0918,-45.28516 l -2.75977,-20.60742 16.58204,17.57031 c 20.36915,21.58348 43.94079,38.07227 54.42773,38.07227 11.81548,0 9.85128,-5.56973 -13.46875,-38.18164 -11.73086,-16.40501 -32.67973,-46.51969 -46.55078,-66.92188 l -25.21875,-37.09375 1.22461,-54.61328 c 0.69691,-31.09595 -0.49142,-54.61133 -2.75781,-54.61133 -6.19023,0 -35.85072,154.11157 -36.02344,187.17578 -0.12291,23.44615 -6.24845,24.60703 -18.63672,3.53125 l -11.55469,-19.6582 -0.11133,14.8418 c -0.14067,19.73121 6.95209,38.49222 23.9961,63.4707 12.85833,18.84423 14.24367,24.11882 16.18359,61.61914 1.56359,30.227 0.38741,45.83051 -4.47461,59.34181 -5.27977,14.6722 -5.90711,27.4666 -3.14258,64.0918 6.52653,86.4637 7.52058,81.1137 -17.43164,93.916 -11.97048,6.1417 -21.76562,13.5841 -21.76562,16.5391 0,2.9549 -1.90189,6.6632 -4.22656,8.2402 -13.35844,9.0613 15.67349,8.3583 49.29492,-1.1934 6.95134,-1.9748 41.47673,74.6492 35.98047,79.8536 -1.89907,1.7978 -23.84905,2.7379 -48.7793,2.0878 l -45.32813,-1.1835 -1.26367,-34.004 c -0.98574,-26.5122 -2.66362,-34.0019 -7.61718,-34.0019 -4.95308,0 -6.35352,6.2447 -6.35352,28.3359 0,15.5851 -1.22435,34.1327 -2.7207,41.2168 l -2.71875,12.8809 h 618.18945 c 559.69186,0 618.43843,-0.6169 620.83008,-6.5195 4.44245,-10.962 2.81372,-43.215 -4.04102,-80.0352 -8.05524,-43.2688 -8.38788,-44.3234 -26.2207,-83.1797 -15.99984,-34.8626 -16.27415,-50.1064 -1.40625,-78.2344 19.66239,-37.1985 65.76219,-166.44715 75.15039,-210.69918 7.81334,-36.82912 10.89562,-103.46146 4.86523,-105.17774 -2.3941,-0.68137 -5.65066,6.7373 -7.23632,16.48633 -1.58589,9.74899 -5.18763,32.36016 -8.00391,50.24609 -4.80858,30.53851 -45.28805,150.50287 -59.94727,177.65821 -6.14971,11.39198 -6.92114,11.70732 -10.04882,4.12109 -1.86307,-4.51884 -3.55155,-16.56254 -3.75391,-26.76367 C 345.09564,926.72771 316.41634,825.99466 298.16797,789.99609 288.97474,771.86079 272.9127,746.82153 262.47461,734.35352 210.53992,672.31854 140.77936,616.96964 108.2207,611.9668 c -19.47865,-2.99312 -19.480119,-7.8353 -0.004,-11.29492 15.5369,-2.75997 19.24143,-9.25585 10.17382,-17.8418 -6.84451,-6.48087 5.01574,-10.42389 58.81446,-19.55274 37.13725,-6.30164 46.04562,-6.55446 66.58594,-1.88867 13.04172,2.96247 24.54022,6.65416 25.55078,8.20313 1.01105,1.54892 -13.282,3.97216 -31.76172,5.38476 -40.41867,3.08969 -84.05985,10.25916 -92.49805,15.19727 -13.66508,7.9968 2.44365,8.6346 60.09766,2.37695 73.49494,-7.97707 74.97656,-7.9958 74.97656,-0.95703 0,6.85735 32.85558,36.13049 65.29297,58.17383 37.29428,25.34396 80.00666,60.09721 85.6543,69.69336 4.88821,8.30577 5.27319,8.34989 8.30078,0.95898 7.90269,-19.29271 -26.48909,-53.97236 -101.41992,-102.26758 -24.62327,-15.87038 -45.01463,-30.53102 -45.31446,-32.57812 -0.29934,-2.04707 -1.03438,-5.57683 -1.63281,-7.84375 -0.59831,-2.26689 -1.33103,-6.00747 -1.63086,-8.31445 -0.29922,-2.30695 -7.5695,-10.65465 -16.1543,-18.54883 -15.24915,-14.02186 -16.43194,-14.35157 -51.32031,-14.35157 -19.64119,0 -47.38522,2.87727 -61.6543,6.39454 -27.75365,6.84124 -71.648434,26.17642 -71.648434,31.56054 0,1.79335 -4.995434,3.25977 -11.099609,3.25977 -13.116748,0 -32.729888,8.95348 -41.453125,18.92187 -3.41677,3.90452 -24.256721,19.88906 -46.3125,35.52149 l -40.101563,28.42187 -20.839843,-6.87695 c -11.461486,-3.78206 -28.996706,-6.83019 -38.966796,-6.77539 -17.40575,0.0965 -18.73936,-0.83942 -33.53125,-23.53125 -8.47288,-12.99783 -23.30889,-30.8962 -32.96875,-39.77344 -9.66004,-8.8772 -17.09547,-18.93947 -16.52539,-22.35937 1.064,-6.37444 -32.123,-24.05797 -62.46485,-33.28516 -14.33274,-4.35866 -16.42285,-7.10414 -25.33203,-33.29687 -17.36836,-51.06222 -54.75838,-74.50044 -130.2832,-81.66797 -37.93742,-3.60042 -46.35615,-5.72836 -53.63477,-13.55274 l -8.48437,-9.11914 c 4.06574,-3.99278 7.46862,-7.28395 9.17969,-8.85937 10.66488,-9.81949 27.36415,-137.6211 17.98242,-137.6211 z m -83.31641,28.02344 c -2.62261,-0.0751 -7.01911,3.92482 -15.21094,13.20899 -8.37135,9.48743 -15.21874,18.92803 -15.21874,20.98046 0,7.79735 6.91731,3.07172 17.23632,-11.77539 9.17103,-13.19548 10.95903,-14.22104 12.47266,-7.16015 2.90332,13.54328 17.59954,18.55445 30.95117,10.55468 8.72784,-5.2293 -1.60211,-16.73828 -15.02344,-16.73828 -5.43586,0 -11.07778,-2.94898 -12.53906,-6.55468 -0.64996,-1.60383 -1.47587,-2.4815 -2.66797,-2.51563 z m 49.0625,23.23047 c -0.81038,0.0452 -1.80854,0.28706 -3.00195,0.7207 -3.76513,1.36802 -6.8457,5.22552 -6.8457,8.57227 0,8.11302 10.50018,4.52309 12.28711,-4.20117 0.73451,-3.5863 -0.008,-5.22751 -2.43946,-5.0918 z m -98.45117,3.7207 c -4.41959,-0.24661 -3.2551,19.51152 2.42188,34.37696 h -0.002 c 2.87509,7.52841 7.00258,13.68945 9.17188,13.68945 2.16982,0 2.56212,-3.24579 0.87304,-7.21289 -1.68907,-3.9671 -4.1202,-14.21334 -5.40429,-22.76953 -1.28425,-8.55618 -4.03061,-16.54975 -6.10156,-17.76172 -0.34458,-0.20165 -0.66435,-0.30583 -0.95899,-0.32227 z m 559.742188,18.13086 c 4.588646,-0.21689 23.2033153,11.34347 27.3925782,17.76172 3.6168828,5.54149 1.7562539,4.98559 -14.2714843,-4.26758 -7.7807679,-4.49202 -14.1464839,-10.17624 -14.1464839,-12.63086 0,-0.56103 0.369869,-0.83229 1.02539,-0.86328 z m -17.855469,3.25 8.205079,10.25196 c 8.120501,10.14562 8.106631,10.27882 -1.378907,12.93164 -5.271152,1.47422 -18.39843,2.74711 -29.171875,2.83007 -17.318407,0.13226 -18.328403,-0.32698 -8.708984,-3.95898 5.984005,-2.25941 15.418874,-8.14683 20.966797,-13.08203 z m -470.417969,18.44141 c -8.88094,0 -19.15807,9.59962 -14.74805,13.77539 3.99905,3.78653 15.50468,3.27267 22.64844,-1.01172 7.60434,-4.56065 2.52657,-12.76367 -7.90039,-12.76367 z m 538.316407,16.96875 c 8.228348,-0.19353 21.981241,13.96642 31.224609,37.14648 5.758813,14.44173 13.105248,27.73989 16.324219,29.55274 3.219095,1.81281 5.851563,5.86116 5.851563,8.99609 0,3.13497 3.918921,6.87743 8.707031,8.31641 7.973891,2.39641 10.419141,7.75563 9.875001,21.63867 -0.11118,2.83366 1.30934,5.15234 3.1582,5.15234 1.84886,0 4.31013,3.43198 5.46875,7.62696 2.89446,10.48029 36.41494,14.89108 49.90235,6.5664 12.21958,-7.54208 16.15031,-7.4602 34.31835,0.70313 10.73843,4.82498 14.80469,9.35303 14.80469,16.48632 0,8.81103 -1.92552,9.84238 -18.5,9.90626 -25.36965,0.0982 -72.78115,10.03382 -97.837888,20.5039 -11.427674,4.77513 -28.014129,15.35767 -36.857422,23.51563 l -16.078125,14.83203 -2.900391,-10.94141 c -1.595049,-6.01727 -4.153314,-20.51097 -5.685546,-32.20898 l -2.785157,-21.26953 -14.185547,21.62695 c -7.8016222,11.8947 -16.61606863,20.86544 -19.5878902,19.93359 -3.5175897,-1.10294 -6.4747298,-15.81114 -8.4726558,-42.14258 -1.68784,-22.24577 -6.09416,-48.85596 -9.792969,-59.13476 -3.698846,-10.2788 -6.72461,-23.92343 -6.72461,-30.32031 0,-9.65836 1.844085,-11.63086 10.88086,-11.63086 13.0181686,0 13.7201649,-6.63508 2.177734,-20.60743 -10.485846,-12.69326 -10.819978,-16.48632 -1.451172,-16.48632 3.990767,0 5.965911,1.21934 4.390625,2.71093 -3.886133,3.67978 5.4146617,13.77539 12.6914065,13.77539 3.415971,0 4.8159204,-2.57296 3.3535156,-6.18164 -1.5866573,-3.91491 0.060804,-6.18359 4.4902344,-6.18359 4.6196975,0 6.9941405,3.61661 6.9941405,10.64844 0,6.72094 2.00687,9.99036 5.441406,8.86523 3.182325,-1.04247 4.895686,-7.01812 4.126953,-14.39453 -1.208549,-11.6027 1.740726,-16.88583 6.677735,-17.00195 z m 8.826172,22.65234 c -1.923437,0.2291 -1.672369,5.92424 -0.205078,21.2461 2.09159,21.84071 1.255888,25.76449 -6.890625,32.36914 -10.434619,8.45983 -11.884783,18.04436 -3.878907,25.625 8.395275,7.94925 22.253716,3.85317 28.439453,-8.40625 4.633875,-9.18422 4.533925,-15.57588 -0.570312,-36.4961 -3.403192,-13.9488 -9.178701,-28.19315 -12.833984,-31.65429 -1.862328,-1.76339 -3.186258,-2.78773 -4.060547,-2.6836 z m -698.552739,2.33203 9.78321,10.9668 c 13.22052,14.81938 62.20716,37.98612 85.46093,40.41602 10.38936,1.08566 23.5183,2.87285 29.17383,3.97265 9.56637,1.86047 9.79281,2.51233 3.26367,9.34375 -3.85988,4.0385 -7.01757,8.6082 -7.01757,10.15625 0,1.54802 -6.36573,12.03521 -14.14649,23.30274 -7.7808,11.26749 -16.11189,20.51739 -18.51367,20.55859 -2.40174,0.0407 -14.15445,-6.39184 -26.11719,-14.29687 -29.06574,-19.20669 -32.74768,-21.98891 -55.56836,-41.96485 l -19.62695,-17.17969 6.6543,-22.63867 z m 620.951176,32.41211 c 1.813611,0.006 2.472656,6.92289 2.472656,20.9961 0,11.78196 -0.364311,18.3164 -2.373046,23.24804 -0.459023,-1.0416 -2.214742,-2.94934 -5.269532,-6.16406 -6.484471,-6.82397 -6.888196,-10.17466 -2.669922,-22.11914 3.740493,-10.59123 6.2396,-15.96618 7.839844,-15.96094 z m -65.349606,48.67969 c -2.98988,-0.0581 -8.56409,1.67798 -16.09375,5.82813 -16.03602,8.83865 -40.14258,29.0248 -40.14258,33.61523 0,6.02502 12.55005,1.36073 22.01953,-8.18359 5.76326,-5.80876 16.89003,-14.31244 24.72656,-18.89844 12.2783,-7.18524 14.473362,-12.26451 9.49024,-12.36133 z m -9.47071,25.33594 c -9.49244,0 -34.3603,20.39243 -31.05078,25.46289 1.49634,2.29247 9.64588,-1.96602 18.46289,-9.64844 8.68153,-7.5645 16.62238,-14.21842 17.64649,-14.78516 1.02388,-0.5667 -1.25203,-1.02929 -5.0586,-1.02929 z m -677.93359,49.96289 c 2.76135,0 5.52235,0.259 7.61719,0.77734 4.18968,1.03673 0.76217,1.88477 -7.61719,1.88477 -8.37883,0 -11.80882,-0.84804 -7.61914,-1.88477 2.09484,-0.51834 4.85779,-0.77734 7.61914,-0.77734 z m -31.99219,12.52734 c 4.24931,-0.0344 9.58267,0.36659 16.37305,1.16992 13.37832,1.58272 24.32422,4.24002 24.32422,5.9043 0,1.66428 -13.64082,2.92191 -30.3125,2.79492 -25.73118,-0.19642 -29.40723,-1.08918 -24.32422,-5.90429 2.78603,-2.63918 6.85728,-3.90748 13.93945,-3.96485 z m 77.88477,5.91797 c -2.2885,-0.25696 -2.03602,7.38667 -0.47656,30.50977 1.29955,19.26871 3.65342,67.15337 5.23046,106.41015 2.62088,65.23854 3.4617,70.81364 9.78711,64.82422 10.50263,-9.94469 12.77374,-116.30646 3.15235,-147.64453 -3.84945,-12.53836 -7,-27.25713 -7,-32.70898 0,-5.45182 -3.04385,-13.51371 -6.76563,-17.91407 -1.74765,-2.06632 -3.03223,-3.37601 -3.92773,-3.47656 z m 460.02929,4.83008 c -1.3859,-0.009 -2.87508,0.0311 -4.48632,0.11523 -8.84924,0.46179 -40.57386,1.30174 -70.5,1.86719 -49.08131,0.92738 -55.44828,1.91617 -65.00391,10.08789 l -10.59375,9.0586 -9.875,-10.08985 c -10.859,-11.09461 -24.03154,-13.06158 -31.37305,-4.68555 -3.47043,3.95948 -2.48475,12.43988 3.68555,31.73633 4.63121,14.48327 7.28831,30.60041 5.90625,35.81446 -3.40603,12.84978 5.96662,12.29869 12.23047,-0.71875 3.98003,-8.27097 3.15518,-14.52968 -4.36328,-33.13282 -8.14307,-20.14873 -8.44879,-23.23196 -2.5293,-25.38281 10.67955,-3.88044 15.12656,3.63354 25.19141,42.55859 7.49416,28.98316 10.97229,36.34182 16.95898,35.88672 8.92029,-0.67804 9.07076,1.26214 2.44922,31.61719 -2.79454,12.81377 -3.78812,26.48909 -2.20703,30.39063 4.70615,11.61263 11.19865,3.4673 14.17578,-17.78321 l 2.78711,-19.89258 12.5,5.9043 c 6.87466,3.2473 18.89561,5.31874 26.71289,4.60547 11.54417,-1.05328 15.93759,-4.39287 23.40039,-17.7832 10.02426,-17.98625 8.12015,-27.37094 -8.02148,-39.54102 -6.72789,-5.07258 -7.74178,-8.35945 -4.45508,-14.42578 7.57746,-13.9855 10.12725,-34.64177 4.28515,-34.71094 -6.57947,-0.0779 5.5431,-8.02459 12.38282,-8.11718 2.56142,-0.0347 11.27069,5.52828 19.35351,12.36132 8.08297,6.83305 22.63834,14.31498 32.34375,16.62696 9.70542,2.31201 22.14519,5.99407 27.64453,8.18359 5.49942,2.18948 17.98142,3.98047 27.73829,3.98047 15.27521,0 16.98626,-0.85814 12.32031,-6.18164 -2.98033,-3.40037 -7.7862,-6.18164 -10.67969,-6.18164 -2.89335,0 -7.8808,-4.6374 -11.08398,-10.30469 -3.20318,-5.66729 -8.28994,-10.30469 -11.30274,-10.30469 -3.0128,0 -9.64187,-5.01284 -14.73242,-11.14062 -6.48805,-7.81012 -11.15801,-10.35447 -20.85938,-10.41797 z m -0.26757,10.98047 c 5.31141,0.26426 9.46236,3.71975 18.92383,12.41992 17.7853,16.35436 14.73724,17.43382 -18.72266,6.64062 -29.69061,-9.57728 -30.63926,-10.83982 -12.41406,-16.53515 5.42054,-1.6939 9.02604,-2.68395 12.21289,-2.52539 z m -128.50391,3.90429 c 1.15228,-0.15095 2.02135,1.86271 3.30274,5.60743 1.73903,5.08029 1.63563,11.57186 -0.23047,14.42578 h -0.002 c -1.86614,2.85392 -4.44243,12.60813 -5.72656,21.67578 l -2.33594,16.48633 -4.89453,-15.04688 c -4.03347,-12.39806 -3.58228,-17.84185 2.56641,-30.91406 3.88981,-8.26965 5.83881,-12.04029 7.32031,-12.23438 z m -151.41016,15.19336 c -2.79871,0.0725 -7.59028,1.26665 -15.06445,3.50586 -6.94099,2.0795 -18.08774,4.91542 -24.76953,6.30274 -6.95297,1.4437 -10.9377,4.3765 -9.31836,6.85742 1.55618,2.38413 7.74078,3.16697 13.74414,1.74023 6.00337,-1.42665 16.43749,-3.63969 23.1875,-4.91796 6.74986,-1.27824 13.31681,-4.89892 14.5918,-8.04493 1.53088,-3.77749 1.22725,-5.53664 -2.3711,-5.44336 z m 166.97266,7.16993 5.88086,9.67187 c 11.27441,18.541 11.62615,20.40537 4.75977,25.32813 -3.80062,2.72477 -8.64889,9.51504 -10.77344,15.08984 -3.67858,9.65276 -4.01037,9.39346 -6.94336,-5.41016 -1.79592,-9.06448 -0.9628,-21.61627 1.99805,-30.11132 z m 29.98242,0.79687 c 2.13795,0 3.88672,2.67288 3.88672,5.93945 0,6.65265 -6.16437,11.58041 -9.97461,7.97266 -3.39689,-3.21645 1.28334,-13.91211 6.08789,-13.91211 z m -280.10156,6.13477 c -5.52943,-0.0101 -12.06963,0.12539 -19.625,0.4082 -32.51354,1.21708 -42.7558,2.98395 -43.79102,7.54883 -0.92262,4.07051 3.21523,6.37258 13.0586,7.26758 17.0488,1.55006 54.7585,-2.33762 65.55469,-6.75782 13.73524,-5.62352 8.76361,-8.42313 -15.19727,-8.46679 z m 92.96484,8.13086 c -0.16305,0.007 -0.3317,0.0594 -0.5039,0.16015 -4.91656,2.87717 -5.56614,21.35099 -1.5586,44.3086 1.48388,8.50091 3.42123,15.45507 4.30469,15.45507 0.88381,0 1.60742,-14.01867 1.60742,-31.15429 0,-18.48834 -1.40381,-28.87233 -3.84961,-28.76953 z m 639.765629,1.3125 c 2.450651,-0.0885 5.309932,1.49716 9.152343,4.88671 4.657811,4.10888 14.231828,8.56224 21.277348,9.89649 12.09595,2.29069 56.75898,30.50816 62.70312,39.61523 4.24866,6.50918 1.30093,4.88486 -14.85156,-8.1914 C 146.69074,646.96099 128.39348,637.91826 96.464844,627.27148 81.46086,622.2683 77.104046,619.1395 80.572266,615.85547 c 1.300582,-1.23148 2.625312,-1.88637 4.095703,-1.93945 z m -731.818359,17.5996 c -2.32816,0.059 -4.21484,2.81843 -4.21484,8.03907 0,4.57961 2.90193,8.24414 6.52929,8.24414 7.32613,0 7.62202,-0.75465 3.88867,-9.9668 -1.7495,-4.31692 -4.14886,-6.36844 -6.20312,-6.31641 z m 65.53711,4.34571 c -4.882,-0.1202 -14.23827,5.06642 -29.41406,15.96094 l -22.77735,16.35156 -19.48633,-7.90821 c -43.59356,-17.6937 -66.50431,-14.31807 -28.24804,4.16211 9.41397,4.54749 17.15556,9.62128 17.19336,11.27539 0.0424,1.65415 1.91447,19.54741 4.16015,39.76172 2.24591,20.21432 3.14575,38.18681 2.00196,39.93946 -1.14395,1.75268 -7.82474,1.29018 -14.84571,-1.02735 -7.021,-2.31741 -16.28211,-3.56525 -20.58008,-2.77343 -5.49256,1.01174 -1.9939,4.18971 11.77344,10.69726 15.25977,7.21281 24.87854,8.87956 43.5293,7.54297 25.60259,-1.83481 82.70508,-18.00986 82.70508,-23.42773 0,-8.1046 -19.57196,-8.06879 -40.76563,0.0762 -12.52187,4.81224 -28.50928,9.1511 -35.52929,9.64062 -12.61724,0.87995 -12.79972,0.58348 -15.9043,-25.90039 -1.72721,-14.7349 -4.24084,-32.50123 -5.58594,-39.48047 -2.29527,-11.90997 -1.70685,-12.59769 9.58203,-11.1914 14.32056,1.78393 66.43946,-27.8998 66.43946,-37.83985 0,-3.80439 -1.31885,-5.78726 -4.24805,-5.85937 z m 213.1875,11.9375 c 11.60772,0 13.05859,1.37414 13.05859,12.36523 0,10.20601 -1.7748,12.36328 -10.1582,12.36328 -5.58622,0 -11.46258,-1.23477 -13.05859,-2.74609 -1.59606,-1.51124 -2.90235,-7.07575 -2.90235,-12.36523 0,-7.93799 2.28192,-9.61719 13.06055,-9.61719 z m 64.21875,2.3164 c -2.53739,0.20656 -3.2793,8.56251 -3.2793,30.97071 0,19.21485 -2.02987,50.25888 -4.50976,68.98633 -2.48037,18.72744 -3.32335,35.86494 -1.875,38.08398 4.85338,7.43565 10.10545,-0.19026 15.3164,-22.23828 6.45276,-27.30217 3.93671,-107.58453 -3.5957,-114.7168 -0.78982,-0.74776 -1.47109,-1.1336 -2.05664,-1.08594 z m 55.29101,11.19922 c 5.86157,0.19767 69.4284,32.20806 77.9004,39.39063 6.43302,5.45401 7.53836,10.4585 5.46679,24.76953 -1.42739,9.86355 -1.30964,22.78263 0.26172,28.71094 2.61003,9.84703 3.14634,10.07902 6.19922,2.68554 2.33243,-5.64865 3.43286,-2.26047 3.64648,11.2168 0.16833,10.62028 2.25845,24.17299 4.64453,30.11523 5.94587,14.80835 -4.10039,32.30524 -22.63281,39.41797 -7.89368,3.0296 -24.32371,12.56326 -36.51172,21.1875 h 0.006 c -12.188,8.62428 -22.9617,15.6059 -23.9414,15.51368 -0.97946,-0.0921 -8.14697,-5.32776 -15.92774,-11.63477 l -14.14648,-11.4668 0.0117,-55.34375 c 0.0142,-44.9735 9.19585,-129.32674 14.63867,-134.48047 0.0652,-0.0617 0.19568,-0.0884 0.38476,-0.082 z m 343.125004,5.76172 c -2.658262,0.12668 1.687973,7.97916 14.005856,21.93945 8.37923,9.4966 15.23438,19.87272 15.23438,23.0586 0,3.18591 1.9594,5.79297 4.35351,5.79297 10.50263,0 2.77799,-18.52912 -15.13476,-36.30469 -10.08726,-10.01009 -16.391448,-14.58486 -18.458986,-14.48633 z m -29.488281,1.54297 c -1.959446,0.0361 -2.316425,1.82605 -0.845703,5.45508 1.643664,4.05596 -2.864185,6.34286 -15.857422,8.04297 -22.539238,2.94916 -64.549045,15.17227 -70.388672,20.48047 -5.973616,5.43004 49.971301,0.52586 80.527344,-7.0586 14.775711,-3.66754 25.523997,-4.47542 28.076172,-2.11133 2.274433,2.10683 7.172008,3.7527 10.882812,3.65821 4.218676,-0.10723 0.35697,-5.51324 -10.302734,-14.42578 C 75.700703,673.3697 67.986447,668.559 64.720703,668.61914 Z m -681.162113,20.39648 c -2.43129,0 -2.40364,53.76007 0.0274,61.82422 h 0.004 c 0.34167,1.13345 2.29526,-3.2281 4.3418,-9.69336 3.99024,-12.60551 0.67466,-52.13086 -4.37305,-52.13086 z M -886.8457,716.0918 c -4.99861,0.23572 -7.70519,10.02925 -12.16016,38.86914 -2.62628,17.00182 -8.04938,50.38689 -12.05273,74.18945 -12.91907,76.81259 -13.17703,89.23778 -2.78125,133.84766 5.26881,22.61004 10.82081,55.99505 12.33984,74.18945 5.1546,61.7414 16.65906,91.9756 52.05664,136.8184 2.38175,3.0173 5.8094,5.4863 7.61719,5.4863 6.45891,0 2.93967,-18.7322 -5.41992,-28.8516 -4.68178,-5.6672 -8.55987,-11.6404 -8.60938,-13.2734 -0.0532,-1.633 -4.99325,-13.1062 -10.97851,-25.4961 -5.98519,-12.3899 -10.88086,-28.2103 -10.88086,-35.1563 v -12.6289 l 8.92773,8.4532 c 5.76461,5.4579 7.97465,11.3026 6.23633,16.4882 -3.14529,9.3837 1.05894,24.5176 6.81055,24.5176 2.18721,0 5.20478,-4.6355 6.70703,-10.3027 3.30251,-12.4594 6.26593,-12.8423 16.01367,-2.0625 7.54363,8.3422 20.59765,11.2749 20.59765,4.6269 0,-1.9893 -2.7707,-5.7926 -6.15624,-8.4531 -5.29663,-4.1626 -5.29942,-6.3887 -0.0254,-15.9609 9.13403,-16.5778 7.39493,-26.082 -7.63867,-41.7442 l -13.5664,-14.1328 -8.07227,9.4375 c -4.43905,5.1908 -8.07031,14.0091 -8.07031,19.5977 v 10.1621 l -12.35742,-9.5879 c -13.55985,-10.5206 -20.18809,-32.4277 -27.84375,-92.01953 -6.11445,-47.59468 -5.87174,-60.53429 2.12695,-113.3457 14.03059,-92.63755 17.05779,-128.90689 11.05469,-132.41993 -1.4475,-0.84708 -2.72148,-1.30244 -3.875,-1.24804 z m 1119.27539,10.00586 c 0.53545,0.13087 2.26271,1.36444 5.2832,3.60742 4.18955,3.11123 7.61719,6.35709 7.61719,7.21289 0,3.39231 -3.57326,1.20941 -9.25977,-5.65625 -3.04561,-3.67719 -4.32907,-5.33233 -3.64062,-5.16406 z m -645.89649,4.83203 c -0.44686,0.007 -0.8329,0.14818 -1.14258,0.4414 -1.5095,1.42916 -1.49318,7.3209 0.0371,13.09375 2.79156,10.53166 15.79601,15.00449 15.53711,5.34375 -0.17715,-6.58823 -10.11193,-18.94741 -14.43164,-18.8789 z m 663.5,14.87109 c 0.30497,0.0186 0.74173,0.24178 1.31446,0.67969 29.93676,22.88972 74.59906,159.37235 77.49414,236.81445 0.91173,24.38948 -0.25939,37.21378 -3.49414,38.28518 -3.18233,1.0541 -5.91322,-10.2011 -7.90039,-32.55276 C 308.00147,882.77972 293.83582,827.79572 261.4082,771.5 c -9.19595,-15.96523 -13.50974,-25.82965 -11.375,-25.69922 z m -105.77929,54.49805 c -3.94833,0 -12.69397,2.00918 -19.4336,4.46289 -18.30056,6.66274 -177.767585,43.76802 -210.308591,48.93555 -47.475399,7.53909 -50.456209,8.4406 -43.302739,13.08984 3.6869,2.39611 22.56086,3.1821 45.47852,1.89453 32.017731,-1.79883 55.877855,-7.15018 130.585938,-29.28906 50.27585,-14.89863 94.279552,-29.78866 97.785152,-33.08985 5.59521,-5.26854 5.49655,-6.0039 -0.80468,-6.0039 z M -215.60352,901.625 c -0.67273,-0.009 -1.24399,0.10716 -1.68164,0.36328 -6.33478,3.70708 -0.72124,49.47068 7.53125,61.39649 10.55495,15.25326 15.44336,8.61532 15.44336,-20.97071 0,-21.69842 -1.66428,-27.85504 -9.36523,-34.64844 -4.18499,-3.69179 -9.01254,-6.09988 -11.92774,-6.14062 z m -314.40234,72.31055 c 2.3669,0.0277 4.57329,0.32808 6.04688,0.89257 v -0.002 c 2.94704,1.12906 -0.51898,1.98468 -7.70118,1.90039 -7.18223,-0.084 -9.59264,-1.00777 -5.35742,-2.05273 2.1176,-0.52233 4.64482,-0.76601 7.01172,-0.73828 z m -147.47656,20.23633 c -4.31479,0.0188 -2.83783,2.72411 4.35351,7.97652 6.50174,4.7488 11.53263,6.1804 12.5,3.5547 1.89585,-5.1471 -7.4937,-11.57204 -16.85351,-11.53122 z m 286.08594,13.50002 c -1.21892,-0.01 -2.63249,0.1436 -4.23633,0.4551 -5.38677,1.046 -17.34857,3.0584 -26.58203,4.4707 -23.9723,3.6663 -38.57896,9.5925 -35.45118,14.3847 3.84159,5.8856 17.44508,5.1268 46.51172,-2.5957 15.27243,-4.0575 25.31641,-8.9937 25.31641,-12.4433 0,-2.8096 -1.90186,-4.2515 -5.55859,-4.2715 z m -208.17188,12.1719 c -32.50386,0.2939 -32.54516,8.5096 6.9668,16.7421 4.78824,0.9977 20.94896,2.028 35.91211,2.2911 21.0192,0.3693 27.20507,-0.8723 27.20507,-5.461 0,-8.9361 -3.68653,-9.91 -48.73242,-12.8711 -8.20082,-0.539 -15.33233,-0.7556 -21.35156,-0.7011 z m -234.64453,23.6367 c 1.24335,-0.058 2.68894,1.4536 4.54883,4.2383 5.66464,8.4806 5.16023,22.0381 -1.03906,27.9082 h -0.002 c -9.69827,9.1835 -12.96761,5.0296 -9.89648,-12.5723 2.37815,-13.6297 4.015,-19.463 6.38867,-19.5742 z m 38.49023,70.5273 c -7.41697,-0.012 -22.13703,6.694 -34.11132,16.1445 -8.95401,7.0666 -12.5424,12.034 -8.70508,12.0567 7.83927,0.039 49.66405,-24.2279 46.66015,-27.0723 -0.81034,-0.7673 -2.13214,-1.126 -3.84375,-1.1289 z m 1099.53711,3.7715 c 3.84218,0.081 6.81055,1.4553 6.81055,4.2695 0,2.4094 4.31219,3.799 9.58398,3.0899 10.96017,-1.4745 9.25907,-6.8004 29.18555,91.3496 7.12237,35.0823 12.09178,64.5968 11.04297,65.5898 v 0 c -2.99071,2.8316 -437.85282,2.8202 -439.701172,-0.012 -0.907045,-1.3896 0.174656,-26.675 2.402344,-56.1895 4.175475,-55.3198 2.851347,-78.7614 -5.353516,-94.8105 -2.606366,-5.0971 -3.543407,-10.3975 -2.083984,-11.7793 1.459461,-1.3819 5.472562,3.8788 8.919922,11.6914 5.989931,13.5744 7.739342,14.4435 39.404297,19.5722 78.295611,12.6815 306.952709,-6.3001 325.083989,-26.9863 3.38043,-3.8568 9.76514,-5.8909 14.70507,-5.7871 z m -985.65039,45.5781 c -14.9071,0.1724 -17.50622,1.0738 -10.88086,3.7696 12.67291,5.1564 45.42473,5.1564 36.99805,0 -3.59112,-2.1975 -15.34383,-3.8939 -26.11719,-3.7696 z m -167.23437,21.3828 c -1.81869,-0.049 -2.29156,4.5063 -0.0899,12.8125 h -0.002 c 1.57312,5.9348 4.60766,10.7911 6.74219,10.7911 4.90926,0 4.86313,-1.1381 -0.59375,-14.7286 -2.41366,-6.0111 -4.64211,-8.8365 -6.05664,-8.875 z m 1144.00586,22.043 c -2.0801,0.054 -4.69318,0.7747 -7.85938,2.1406 -9.12103,3.9351 -9.68486,5.6334 -5.41992,16.3321 6.14243,15.4088 14.44757,15.2599 18.0625,-0.3243 2.89091,-12.4632 1.45709,-18.3097 -4.7832,-18.1484 z m -934.39649,12.3066 c -2.65854,0.062 -4.78529,0.7171 -5.72851,2.1622 -1.41453,2.1672 -0.12595,6.7301 2.86328,10.1406 6.62045,7.5534 23.60742,6.01 23.60742,-2.1446 0,-5.19 -12.76655,-10.3436 -20.74219,-10.1582 z m -62.96679,4.0254 c -1.49647,-0.079 -2.62386,0.6039 -3.53516,2 -3.94364,6.0419 19.939,25.9807 39.36328,32.8633 7.18224,2.5449 15.99677,6.2196 19.58789,8.166 9.1683,4.9695 17.41211,4.8147 17.41211,-0.3261 0,-2.3924 -11.26327,-9.1356 -25.0293,-14.9844 -13.76598,-5.8488 -30.20221,-15.1707 -36.52343,-20.7168 -5.26118,-4.6162 -8.78129,-6.8698 -11.27539,-7.002 z m 126.49609,27.7032 c -5.40431,-0.275 -16.97104,4.02 -23.04297,9.4882 -4.08147,3.6757 -4.5465,5.7403 -1.29297,5.7403 8.28061,0 27.25586,-9.2626 27.25586,-13.3047 0,-1.233 -1.11848,-1.8322 -2.91992,-1.9238 z"
       transform="scale(0.26458333)"
       id="path5099"
       inkscape:connector-curvature="0" />
    <path
       style="fill:none;stroke:#000000;stroke-width:0.26458332px;stroke-linecap:butt;stroke-linejoin:miter;stroke-opacity:1"
       d="M -148.15446,80.986523 Z"
       id="path5101"
       inkscape:connector-curvature="0" />
  </g>
</svg>
